<?xml version="1.0" encoding="UTF-8"?>
<svg version="1.1" viewBox="0 0 1600 1600" width="1280" height="1280" xmlns="http://www.w3.org/2000/svg">
<path transform="translate(548 -.263)" d="m0 0c0.89-0.00411 1.78-0.00821 2.7-0.0124 2.98-0.0113 5.97-0.00843 8.95-0.00559 2.16-0.00517 4.32-0.0112 6.48-0.018 5.94-0.0161 11.9-0.0197 17.8-0.0212 6.4-0.0037 12.8-0.0188 19.2-0.0323 14.7-0.0286 29.5-0.0402 44.2-0.0494 7.29-0.00467 14.6-0.0119 21.9-0.0194 25-0.0257 49.9-0.0471 74.9-0.054 1.57-4.43e-4 3.13-8.87e-4 4.7-0.00133 1.57-4.41e-4 3.14-8.82e-4 4.71-0.00132 3.15-8.85e-4 6.3-0.00178 9.45-0.00268 1.17-3.28e-4 1.17-3.28e-4 2.37-6.63e-4 25.3-0.00726 50.6-0.0391 75.9-0.0857 26.8-0.0492 53.5-0.0766 80.3-0.079 2.94-3.43e-4 5.88-7.74e-4 8.82-0.00127 0.724-1.12e-4 1.45-2.23e-4 2.19-3.38e-4 11.6-0.0023 23.3-0.0243 34.9-0.0534 11.7-0.0288 23.4-0.0347 35.1-0.0191 6.34 0.0078 12.7 6e-3 19-0.0221 5.81-0.0255 11.6-0.023 17.4 0.00118 2.09 0.00391 4.19-0.0022 6.28-0.0197 19.6-0.153 35.8 4.17 50.5 18 12 12.7 16.4 27 16.4 44.2 8.54e-4 0.929 0.00171 1.86 0.00259 2.81 0.00164 3.1-0.00385 6.2-0.00932 9.3-2.82e-4 2.23-1.24e-4 4.46 4.43e-4 6.68 2.87e-4 6.04-0.00559 12.1-0.0126 18.1-0.00625 6.32-0.00684 12.6-0.00803 18.9-0.00275 10.6-9e-3 21.2-0.0179 31.8-0.00919 10.9-0.0163 21.8-0.0205 32.7-2.63e-4 0.673-5.25e-4 1.35-7.96e-4 2.04-0.00131 3.38-0.00257 6.76-0.00381 10.1-0.0104 28-0.028 56-0.0503 84 0.933-7.59e-4 1.87-0.00152 2.83-0.0023 55.3-0.0448 111-0.0791 166-0.0998 6.63-0.0025 13.3-0.00509 19.9-0.00773 0.66-2.62e-4 1.32-5.23e-4 2-7.92e-4 22.1-0.00879 44.1-0.0247 66.2-0.0436 21.9-0.0187 43.9-0.0298 65.8-0.0339 13.5-0.00275 27.1-0.0114 40.6-0.0277 9.28-0.0106 18.6-0.0138 27.8-0.0112 5.36 0.00128 10.7-7.21e-4 16.1-0.0114 4.9-0.00971 9.81-0.0102 14.7-0.00339 1.78 8.47e-4 3.55-0.00171 5.33-0.00797 2.41-8e-3 4.82-0.00372 7.23 0.00367 0.693-0.00525 1.39-0.0105 2.1-0.0159 6.7 0.0465 11.7 1.55 16.5 6.26 3.26 5.16 3.44 9.4 3.4 15.3 0.00686 0.918 0.0137 1.84 0.0208 2.78 0.0182 3.02 0.0144 6.05 0.00874 9.07 0.00456 2.11 0.00987 4.21 0.0159 6.32 0.00893 4.41 0.00651 8.82-0.00343 13.2-0.0115 5.65 0.00873 11.3 0.0379 16.9 0.0184 4.35 0.0181 8.7 0.0124 13-1.53e-4 2.08 0.00589 4.17 0.0183 6.25 0.0149 2.91 0.00424 5.82-0.0129 8.74 0.00967 0.857 0.0193 1.71 0.0293 2.6-0.0848 6.89-2.46 10.4-7.03 15.5-6.71 5.28-19.3 3.33-27.4 3.29-1.61-0.00212-1.61-0.00212-3.24-0.00429-3.37-0.00553-6.74-0.0181-10.1-0.0309-2.31-0.00502-4.61-0.00958-6.92-0.0137-5.61-0.0109-11.2-0.0276-16.8-0.0488 3.12e-4 1.03 6.24e-4 2.06 9.45e-4 3.12 0.0107 35.2 0.0209 70.4 0.0308 106 2e-4 0.709 3.99e-4 1.42 6.05e-4 2.15 0.0214 76 0.0398 152 0.0523 228 2.79e-4 1.69 5.58e-4 3.38 8.37e-4 5.06 0.00585 35.4 0.0113 70.8 0.0162 106 0.00249 17.8 0.00506 35.6 0.00771 53.4 3.98e-4 2.68 7.95e-4 5.37 0.00119 8.05 0.00612 41.3 0.0139 82.7 0.0267 124 2.74e-4 0.889 5.48e-4 1.78 8.3e-4 2.69 0.00442 14.3 0.00899 28.7 0.0136 43 0.0132 41.3 0.0254 82.6 0.0305 124 1.61e-4 1.27 1.61e-4 1.27 3.24e-4 2.57 0.00233 18.6 0.00412 37.3 0.0054 55.9 5.23e-4 7.5 0.00112 15 0.00175 22.5 6.69e-5 0.82 1.34e-4 1.64 2.03e-4 2.49 0.00219 26.4 0.0107 52.9 0.0226 79.3 0.0119 26.6 0.0176 53.3 0.0147 79.9-4.06e-4 3.68-7.41e-4 7.36-0.00103 11-5.98e-5 0.721-1.2e-4 1.44-1.81e-4 2.18-7.62e-4 11.4 0.00521 22.9 0.014 34.3 0.00848 11.2 0.0097 22.5 0.00364 33.7-0.00303 6.01-0.00284 12 0.0061 18 0.00807 5.46 7e-3 10.9-0.00149 16.4-0.00143 1.97 5.18e-4 3.94 0.00619 5.91 0.0072 2.67 0.0021 5.33-0.00607 8 0.00502 0.762 0.01 1.52 0.0152 2.31-0.0476 7.26-0.917 13.9-6.26 19.3-5.2 4.31-9.07 4.57-15.5 4.5-0.959 0.00598-1.92 0.012-2.91 0.0181-3.23 0.0152-6.46 0.00187-9.7-0.0112-2.34 0.00508-4.69 0.0119-7.03 0.0203-5.8 0.0162-11.6 0.0138-17.4 0.00365-6.99-0.0112-14 9.75e-4 -21 0.0138-13.1 0.0233-26.1 0.0276-39.2 0.0215-13.2-0.00612-26.5-0.00361-39.7 0.00945-0.836 8.18e-4 -1.67 0.00164-2.53 0.00248-3.4 0.00336-6.81 0.00677-10.2 0.0103-34.6 0.0354-69.1 0.0447-104 0.0433-4.78-1.81e-4 -9.56-3.36e-4 -14.3-4.64e-4 -0.949-2.7e-5 -1.9-5.41e-5 -2.88-8.19e-5 -21-4.55e-4 -42 0.00652-63.1 0.0149-4.8 0.00191-9.6 0.00377-14.4 0.00563-0.953 3.7e-4 -1.91 7.4e-4 -2.89 0.00112-1.93 7.48e-4 -3.85 0.0015-5.78 0.00224-1.93 7.49e-4 -3.86 0.0015-5.79 0.00225-54.8 0.0213-110 0.0342-164 0.029-1.01-9.37e-5 -2.03-1.87e-4 -3.08-2.84e-4 -11.3-0.00105-22.6-0.00219-34-0.00337-3.1-3.2e-4 -6.2-6.39e-4 -9.29-9.59e-4 -2.07-2.14e-4 -4.13-4.31e-4 -6.2-6.5e-4 -65.4-0.0069-131 0.0153-196 0.0619-16.5 0.0117-32.9 0.0233-49.4 0.0344-1.52 0.00102-1.52 0.00102-3.07 0.00206-31.2 0.0208-62.5 0.033-93.7 0.0364-1.47 1.59e-4 -1.47 1.59e-4 -2.97 3.22e-4 -21.5 0.00225-43.1 0.0024-64.6 6.2e-4 -7.7-6.19e-4 -15.4-0.00109-23.1-0.00149-1.92-1.01e-4 -3.83-2.1e-4 -5.75-3.28e-4 -30.6-0.0018-61.1 0.0167-91.7 0.0453-30.8 0.0286-61.5 0.0346-92.3 0.00961-4.25-0.00345-8.5-0.00665-12.7-0.00972-0.833-6.1e-4 -1.67-0.00122-2.52-0.00185-13.2-0.00904-26.4 0.00544-39.6 0.0296-13 0.0233-25.9 0.0217-38.9-0.00659-6.94-0.0145-13.9-0.0179-20.8 0.0108-6.31 0.025-12.6 0.018-18.9-0.015-2.28-0.0062-4.55-5.3e-4 -6.83 0.0181-3.08 0.0235-6.16 0.00419-9.24-0.0261-0.883 0.0171-1.77 0.0342-2.68 0.0518-5.99-0.123-9.21-1.81-13.5-6.03-4.42-5.12-5.07-9.69-5.01-16.3-0.00383-0.834-0.00767-1.67-0.0116-2.53-0.00922-2.81 0.00302-5.61 0.0151-8.42-0.00222-2.04-0.00575-4.07-0.0105-6.11-0.00923-5.63 3.41e-4 -11.3 0.0128-16.9 0.0103-6.11 0.00319-12.2-0.00173-18.3-0.00623-10.7-0.00137-21.4 0.0109-32.2 0.0131-11.5 0.0197-23 0.0183-34.5-8.61e-5 -0.726-1.72e-4 -1.45-2.61e-4 -2.2-4.69e-4 -3.7-0.00104-7.4-0.00166-11.1-0.00422-26.8 0.00608-53.6 0.0241-80.4 0.0178-26.5 0.0293-53.1 0.0326-79.6 1.03e-4 -0.824 2.06e-4 -1.65 3.13e-4 -2.5 9.4e-4 -7.53 0.0018-15.1 0.00257-22.6 0.00192-18.7 0.0048-37.4 0.00833-56.1 2.4e-4 -1.28 2.4e-4 -1.28 4.85e-4 -2.58 0.00787-41.5 0.0268-82.9 0.0466-124 0.00687-14.4 0.0137-28.8 0.0203-43.2 4.11e-4 -0.893 8.22e-4 -1.79 0.00124-2.7 0.019-41.5 0.0302-83 0.0394-124 5.94e-4 -2.69 0.00119-5.39 0.00179-8.08 0.00396-17.8 0.00778-35.7 0.0115-53.5 0.00743-35.5 0.0157-71 0.0244-107 4.18e-4 -1.69 8.35e-4 -3.38 0.00125-5.07 0.0188-76.1 0.0468-152 0.0788-228 3e-4 -0.713 6e-4 -1.43 9.09e-4 -2.16 0.015-35.7 0.0305-71.3 0.0467-107-0.671 0.00444-1.34 0.00888-2.03 0.0135-7.01 0.0444-14 0.0745-21 0.0964-2.61 0.01-5.23 0.0237-7.84 0.041-3.76 0.0244-7.53 0.0356-11.3 0.0444-1.16 0.0103-2.32 0.0206-3.52 0.0313-7.22 9.91e-4 -13.8-0.0588-20.1-3.98-5.5-5.66-5.71-11.4-5.87-18.9-0.0327-1.08-0.0654-2.17-0.0991-3.28-0.385-14.5-0.37-29.1-0.233-43.7 0.0202-2.45 0.0316-4.9 0.0416-7.35 0.0193-4.13 0.0664-8.26 0.133-12.4 0.0217-1.57 0.0354-3.15 0.0404-4.72 0.0645-15.3 0.0645-15.3 4.17-19.5 5.22-4.43 10.8-5.98 17.6-5.88 0.762-0.00462 1.52-0.00923 2.31-0.014 2.55-0.0106 5.09 0.00733 7.63 0.0252 1.85-0.00175 3.69-0.00525 5.54-0.0104 5.07-0.00894 10.1 0.00705 15.2 0.0271 5.47 0.0173 10.9 0.0114 16.4 0.00839 9.47-0.0021 18.9 0.0104 28.4 0.033 13.7 0.0325 27.4 0.0429 41.1 0.048 22.2 0.00875 44.4 0.0353 66.6 0.0732 21.6 0.0367 43.2 0.0651 64.7 0.082 0.665 5.26e-4 1.33 0.00105 2.02 0.00159 7.34 0.0058 14.7 0.0114 22 0.0168 55.4 0.0415 111 0.112 166 0.201-0.00277-1.16-0.00553-2.33-0.00838-3.53-0.0651-27.7-0.114-55.3-0.145-83-0.00375-3.41-0.00763-6.82-0.0116-10.2-7.87e-4 -0.679-0.00157-1.36-0.00238-2.06-0.013-11-0.0367-21.9-0.0643-32.9-0.0281-11.3-0.0445-22.5-0.0508-33.8-0.00391-6.33-0.0131-12.7-0.0349-19-0.0204-5.96-0.0266-11.9-0.0221-17.9-8.22e-4 -2.18-0.00675-4.36-0.0183-6.54-0.0967-19.2 2.11-35.4 15-50.7 11.3-11.2 26.4-18.7 42.4-18.6zm-20.7 44.4c-6.45 9.16-4.48 22.7-4.47 33.4-0.00187 1.67-0.00417 3.34-0.00687 5.01-0.0061 4.57-0.00599 9.14-0.00481 13.7 2.05e-4 4.94-0.00532 9.88-0.0101 14.8-0.00829 9.67-0.0111 19.3-0.0116 29-4.76e-4 7.86-0.00253 15.7-0.0057 23.6-0.0088 22.3-0.0134 44.6-0.0127 66.9 4e-5 1.2 7.99e-5 2.4 1.21e-4 3.64 4.09e-5 1.2 8.18e-5 2.4 1.24e-4 3.64 4.07e-4 19.5-0.00917 39-0.0233 58.5-0.0144 20-0.0213 40-0.0204 60.1 3.32e-4 11.2-0.00241 22.5-0.0132 33.7-0.00911 9.57-0.0113 19.1-0.00449 28.7 0.00326 4.88 0.00333 9.76-0.00535 14.6-0.00788 4.47-0.00642 8.94 0.00228 13.4 0.00153 1.61-2.71e-4 3.22-0.00586 4.84-0.563 18.4-0.563 18.4 7.83 34 6.56 6.05 12.6 7.87 21.3 7.8 0.879 0.00436 1.76 0.00872 2.66 0.0132 2.95 0.011 5.9 5.32e-4 8.84-0.00979 2.13 0.00346 4.27 0.00822 6.4 0.0142 5.87 0.0125 11.7 0.00632 17.6-0.00296 6.32-0.00678 12.6 0.00368 19 0.0119 11.7 0.0126 23.3 0.0115 35 0.00327 10.8-0.00755 21.6-0.00952 32.4-0.00593 0.715 2.29e-4 1.43 4.58e-4 2.17 6.94e-4 2.9 9.34e-4 5.81 0.00189 8.71 0.00288 27.2 0.00918 54.5 8.55e-4 81.7-0.0153 24.2-0.0142 48.4-0.013 72.6 0.00138 27.2 0.0161 54.4 0.0224 81.6 0.0132 2.9-9.62e-4 5.8-0.0019 8.69-0.00283 0.714-2.37e-4 1.43-4.74e-4 2.16-7.19e-4 10.8-0.00341 21.6 5.8e-4 32.3 0.00816 12.3 0.00857 24.5 0.00615 36.8-0.00984 6.25-0.0079 12.5-0.011 18.8-0.00105 5.72 0.00892 11.4 0.00406 17.2-0.0119 2.07-0.00336 4.15-0.00163 6.22 0.00563 2.81 0.00909 5.63-2.05e-4 8.44-0.0142 0.809 0.00702 1.62 0.014 2.45 0.0213 8.26-0.0822 13.7-3.07 19.7-8.63 5.32-5.44 5.85-10.5 5.86-17.8 0.00205-0.715 0.00411-1.43 0.00622-2.17 0.00568-2.41 0.00421-4.82 0.00279-7.22 0.00258-1.74 0.0056-3.48 9e-3 -5.22 0.00808-4.79 0.00986-9.58 0.0106-14.4 0.00185-5.16 0.0094-10.3 0.0161-15.5 0.0136-11.3 0.0196-22.6 0.024-33.9 0.00276-7.05 7e-3 -14.1 0.0115-21.1 0.0122-19.5 0.0225-39 0.0259-58.5 3.29e-4 -1.87 3.29e-4 -1.87 6.65e-4 -3.78 2.18e-4 -1.25 4.37e-4 -2.5 6.61e-4 -3.79 4.43e-4 -2.54 8.9e-4 -5.07 0.00134-7.61 3.32e-4 -1.89 3.32e-4 -1.89 6.71e-4 -3.81 0.00395-20.4 0.0214-40.8 0.0447-61.2 0.0237-20.9 0.0362-41.8 0.0373-62.8 9.18e-4 -11.8 0.00669-23.5 0.0248-35.3 0.0154-10 0.0205-20 0.0123-30-0.00391-5.11-0.00294-10.2 0.0111-15.3 0.0127-4.67 0.0116-9.35-5.91e-4 -14-0.00196-1.69 0.00116-3.38 0.00984-5.08 0.0111-2.3 0.00363-4.6-0.00839-6.9 5.97e-4 -1.28 0.00119-2.55 0.00181-3.87-0.597-5.7-2.75-10.4-6.5-14.8-0.518-0.633-1.04-1.27-1.57-1.92-6.12-5.03-12.7-6.49-20.5-6.4-0.88-0.00611-1.76-0.0122-2.67-0.0185-2.94-0.0156-5.88-0.00275-8.82 0.01-2.13-0.00533-4.27-0.0124-6.4-0.021-5.86-0.0186-11.7-0.0123-17.6-0.00185-6.32 0.00699-12.6-9e-3 -19-0.022-11.7-0.0204-23.3-0.0225-35-0.0148-10.8 0.00708-21.5 0.00713-32.3 1.37e-4 -1.45-9.11e-4 -2.89-0.00182-4.34-0.00273-2.18-0.00138-4.36-0.00277-6.53-0.00419-20.2-0.013-40.5-0.0181-60.7-0.00647-1.14 6.57e-4 -1.14 6.57e-4 -2.31 0.00133-6.2 0.00361-12.4 0.00744-18.6 0.0113-24.2 0.0148-48.3 0.00607-72.5-0.022-27.2-0.0314-54.3-0.0464-81.5-0.0362-2.9 0.00104-5.79 0.00202-8.69 0.00298-0.713 2.49e-4 -1.43 4.98e-4 -2.16 7.54e-4 -10.8 0.00344-21.5-0.00586-32.3-0.0215-12.2-0.0178-24.5-0.0174-36.7 0.00535-6.25 0.0112-12.5 0.0143-18.7-0.0043-5.72-0.0168-11.4-0.0105-17.2 0.0142-2.07 0.00489-4.14 0.00135-6.2-0.0115-13.7-0.0788-24.3 0.275-33.4 11.7zm-462 267c-0.589 17.7-1 35.3-1 53h427v-53h-426zm1047 0v53h423c0.33-17.2 0.66-34.3 1-52-1.1-1.32-1.1-1.32-3.84-1.12-1.93 5.7e-4 -1.93 5.7e-4 -3.89 0.00115-0.715-0.00115-1.43-0.00231-2.17-0.0035-2.43-0.00267-4.85 0.00186-7.28 0.00629-1.75-4.36e-4 -3.49-0.00131-5.24-0.00259-4.82-0.00225-9.64 0.00178-14.5 0.00678-5.19 0.0043-10.4 0.00286-15.6 0.0021-9-5.26e-4 -18 0.00262-27 0.00824-13 0.00811-26 0.0107-39 0.012-21.1 0.00219-42.2 0.00885-63.3 0.0183-20.5 0.00917-41 0.0163-61.5 0.0205-1.89 3.94e-4 -1.89 3.94e-4 -3.83 7.96e-4 -6.34 0.0013-12.7 0.00257-19 0.00381-52.6 0.0104-105 0.0283-158 0.0503zm-976 86v856c162 22.8 162 22.8 313-1 0.00147-1.39 0.00147-1.39 0.00296-2.81 0.0581-54.9 0.132-110 0.226-165 0.0113-6.59 0.0224-13.2 0.0335-19.8 0.0022-1.31 0.00441-2.62 0.00668-3.97 0.0354-21.2 0.0602-42.5 0.0812-63.7 0.0217-21.8 0.0548-43.6 0.0984-65.4 0.0265-13.5 0.0442-26.9 0.0506-40.4 0.00525-9.22 0.0214-18.4 0.0463-27.7 0.014-5.32 0.0232-10.6 0.0193-16-0.0034-4.87 0.0069-9.74 0.0282-14.6 0.00528-1.76 0.00549-3.53 1.6e-4 -5.29-0.00649-2.39 0.00536-4.79 0.0218-7.18-0.00628-0.689-0.0126-1.38-0.019-2.09 0.0727-5.71 1.61-9.71 5.65-13.8 6.65-4.23 13.4-4.04 21-4 1.7-0.00481 1.7-0.00481 3.44-0.00972 3.82-0.00833 7.65-0.00237 11.5 0.0035 2.76-0.00191 5.53-0.00683 8.29-0.0116 6.02-0.00877 12-0.0101 18-0.0065 8.95 0.0053 17.9-7.85e-4 26.8-0.00908 16.9-0.0153 33.8-0.0169 50.7-0.0145 13.1 0.00183 26.1 7.54e-5 39.2-0.00422 1.87-6.02e-4 3.75-0.0012 5.62-0.0018 2.82-9.07e-4 5.65-0.00182 8.47-0.00273 26.3-0.00843 52.5-0.0128 78.8-0.00859 1.49 2.35e-4 1.49 2.35e-4 3 4.74e-4 5.02 8.06e-4 10 0.00165 15.1 0.00251 0.997 1.71e-4 1.99 3.42e-4 3.02 5.18e-4 2.02 3.47e-4 4.03 6.95e-4 6.05 0.00105 31.4 0.00536 62.8-0.00257 94.1-0.021 35.2-0.0207 70.5-0.0314 106-0.0274 3.76 3.95e-4 7.51 7.57e-4 11.3 0.0011 1.39 1.36e-4 1.39 1.36e-4 2.8 2.75e-4 14 0.00117 27.9-0.00549 41.9-0.0161 15.9-0.012 31.8-0.0136 47.7-0.00121 8.89 0.00664 17.8 0.00498 26.7-0.00859 5.94-0.00823 11.9-0.00557 17.8 0.00598 3.39 0.00627 6.77 0.00617 10.2-0.00386 3.65-0.0101 7.29-0.00172 10.9 0.0113 1.05-0.00731 2.1-0.0146 3.18-0.0221 6.56 0.0486 13.7 0.37 19 4.74 4.64 5.16 4.53 10.5 4.52 17.1 0.00284 0.745 0.00568 1.49 0.00861 2.26 0.00834 2.51 0.00961 5.01 0.0109 7.52 0.00457 1.81 0.00957 3.62 0.015 5.43 0.0136 4.98 0.021 9.97 0.0274 14.9 8e-3 5.37 0.0217 10.7 0.0347 16.1 0.0218 9.31 0.0399 18.6 0.0556 27.9 0.0227 13.5 0.0508 26.9 0.0803 40.4 0.0477 21.8 0.0909 43.7 0.131 65.5 0.0394 21.2 0.0808 42.4 0.125 63.6 0.00272 1.31 0.00545 2.61 0.00826 3.96 0.0137 6.56 0.0274 13.1 0.0411 19.7 0.114 54.4 0.221 109 0.323 163 39.7 0.0229 79.5 0.0405 119 0.0511 4.69 0.00125 9.37 0.00255 14.1 0.00387 1.4 3.93e-4 1.4 3.93e-4 2.83 7.95e-4 15.1 0.00436 30.2 0.0122 45.4 0.0214 15.5 0.00934 31 0.0149 46.5 0.0169 9.58 0.00138 19.2 0.00573 28.7 0.0138 6.56 0.00527 13.1 0.00689 19.7 0.00558 3.79-6.44e-4 7.58 3.76e-4 11.4 0.0057 4.1 0.00572 8.2 0.0038 12.3 0.00105 1.21 0.00291 2.42 0.00583 3.67 0.00883 1.09-0.00199 2.18-0.00398 3.3-0.00603 1.42 5.7e-4 1.42 5.7e-4 2.87 0.00115 2.11 0.113 2.11 0.113 3.12-1.12 0.098-1.87 0.124-3.74 0.124-5.61 0.00337-1.84 0.00337-1.84 0.00681-3.72-0.00257-1.38-0.00522-2.77-0.00796-4.15 7.39e-4 -1.46 0.00192-2.92 0.0035-4.38 0.00309-4.05-1.23e-4 -8.09-0.00428-12.1-0.00342-4.39-0.00107-8.78 5.77e-4 -13.2 0.00208-7.7 4.2e-4 -15.4-0.00364-23.1-0.00602-11.5-0.00634-22.9-0.00546-34.4 0.00132-19.3-0.00204-38.5-0.00802-57.8-0.00591-19.1-0.00976-38.2-0.0109-57.3-6.87e-5 -1.19-1.37e-4 -2.37-2.08e-4 -3.59-3.38e-4 -6.02-6.4e-4 -12-9.27e-4 -18.1-0.0021-42.7-0.00885-85.3-0.0183-128-0.00918-41.5-0.0163-82.9-0.0205-124-1.32e-4 -1.28-2.63e-4 -2.55-3.99e-4 -3.87-0.00132-12.8-0.00259-25.7-0.00384-38.5-0.00254-26.1-0.00536-52.3-0.00835-78.4-2.06e-4 -1.8-2.06e-4 -1.8-4.16e-4 -3.64-0.00422-36.8-0.00966-73.7-0.0163-111-1.88e-4 -1.05-3.75e-4 -2.09-5.68e-4 -3.17-0.00762-42.4-0.0165-84.8-0.0251-127h-352c-0.33 24.8-0.66 49.5-1 75-1.95 11.7-4.78 24.9-13.7 33.7-1.55 1.26-1.55 1.26-1.32 3.34-0.587 0.272-1.17 0.544-1.78 0.824-2.18 1.15-3.88 2.43-5.79 3.99-12.3 9.33-26.5 11.4-41.5 11.3-0.872 0.00175-1.74 0.00351-2.64 0.00531-2.91 0.00464-5.82 0.0022-8.73-2.34e-4 -2.11 0.00187-4.22 0.00417-6.34 0.00687-5.8 0.00611-11.6 0.00598-17.4 0.00481-6.25-2.04e-4 -12.5 0.00532-18.8 0.0101-12.2 0.0083-24.5 0.0111-36.7 0.0116-9.96 4.6e-4 -19.9 0.00252-29.9 0.0057-2.87 8.98e-4 -5.73 0.00179-8.6 0.00267-0.713 2.21e-4 -1.43 4.42e-4 -2.16 6.7e-4 -20 0.00615-40.1 0.0101-60.1 0.00966-0.755-1.56e-5 -1.51-3.12e-5 -2.29-4.72e-5 -3.83-8.31e-5 -7.66-1.82e-4 -11.5-2.85e-4 -0.76-1.99e-5 -1.52-3.99e-5 -2.3-6.04e-5 -1.54-4.04e-5 -3.08-8.22e-5 -4.61-1.25e-4 -23.9-6.13e-4 -47.9 0.0069-71.8 0.0206-26.9 0.0154-53.8 0.024-80.7 0.023-2.87-7.46e-5 -5.74-1.23e-4 -8.6-1.54e-4 -0.706-1.17e-5 -1.41-2.33e-5 -2.14-3.53e-5 -11.4-3.08e-5 -22.7 0.00635-34.1 0.015-11.4 0.00848-22.8 0.00929-34.2 0.00289-6.18-0.00327-12.4-0.00331-18.5 0.00535-5.66 0.00785-11.3 0.00645-17-0.00228-2.05-0.00154-4.09 2.92e-4 -6.14 0.00586-21.3 0.0541-38.4-2.35-54.4-17.6-10.9-11.4-15.3-25.1-15.5-40.6-0.0099-0.762-0.0198-1.52-0.03-2.31-0.0313-2.49-0.0563-4.99-0.0811-7.48-0.0206-1.74-0.0416-3.48-0.063-5.22-0.055-4.56-0.104-9.12-0.153-13.7-0.0504-4.66-0.106-9.32-0.161-14-0.107-9.13-0.209-18.3-0.307-27.4-106-52.9-237-0.335-355 0zm346 436v562h41c1.79-1.79 1.13-4.19 1.14-6.57-0.00188-0.809-0.00376-1.62-0.0057-2.45 0.00194-0.855 0.00389-1.71 0.00589-2.59 0.00537-2.9 0.00355-5.81 0.00186-8.71 0.00242-2.09 0.00528-4.18 0.00855-6.26 0.00779-5.77 0.00937-11.5 0.0101-17.3 0.00183-6.21 0.00944-12.4 0.0165-18.6 0.0108-10.1 0.019-20.1 0.0249-30.2 0.01-17 0.0293-34 0.0515-51 0.00853-6.53 0.0168-13.1 0.0251-19.6 0.00139-1.09 0.00139-1.09 0.0028-2.2 0.022-17.3 0.0418-34.6 0.0605-51.9 8.2e-4 -0.757 0.00164-1.51 0.00248-2.29 0.0191-17.7 0.036-35.3 0.0484-53 7.95e-4 -1.14 7.95e-4 -1.14 0.00161-2.3 0.00425-6.12 0.00843-12.2 0.0126-18.4 0.0172-25.2 0.0444-50.4 0.0832-75.7 0.00546-3.56 0.0108-7.12 0.016-10.7 0.00103-0.701 0.00207-1.4 0.00313-2.12 0.0163-11.3 0.0219-22.6 0.0232-33.9 0.0015-11.3 0.0139-22.7 0.0368-34 0.0121-6.15 0.0192-12.3 0.0133-18.4-0.00528-5.62 0.00312-11.2 0.0226-16.9 0.00459-2.04 0.00408-4.08-0.00195-6.12-0.00745-2.76 0.00342-5.53 0.019-8.29-0.00656-0.797-0.0131-1.59-0.0199-2.42 0.0514-4.81 0.782-8.06 3.4-12.2 5.32-4.92 9.61-5.15 16.6-5.13 0.893-0.00235 1.79-0.0047 2.71-0.00713 3.02-0.00671 6.04-0.00623 9.06-0.00582 2.18-0.0033 4.35-0.00702 6.53-0.0111 6-0.01 12-0.0137 18-0.0164 6.46-0.0039 12.9-0.0135 19.4-0.0222 14.9-0.0191 29.8-0.029 44.6-0.0375 7.35-0.0042 14.7-0.00943 22-0.0147 25.2-0.0179 50.3-0.0329 75.5-0.0403 1.58-4.75e-4 3.16-9.51e-4 4.74-0.00143 0.783-2.36e-4 1.57-4.73e-4 2.37-7.16e-4 3.97-0.0012 7.94-0.00242 11.9-0.00364 0.788-2.4e-4 1.58-4.8e-4 2.39-7.28e-4 25.5-0.0079 51.1-0.0313 76.6-0.0638 27-0.0343 54-0.054 81-0.0573 2.96-4.18e-4 5.92-8.97e-4 8.89-0.00142 0.729-1.23e-4 1.46-2.46e-4 2.21-3.73e-4 11.7-0.00233 23.5-0.018 35.2-0.0385 11.8-0.0202 23.6-0.0254 35.4-0.0162 6.4 0.00456 12.8 0.00257 19.2-0.0168 5.85-0.0175 11.7-0.0167 17.6-0.0011 2.12 0.00239 4.24-0.00202 6.36-0.0138 2.88-0.015 5.75-0.00551 8.63 0.0102 0.828-0.0102 1.66-0.0204 2.51-0.031 5.67 0.0679 9.03 1.08 13.6 4.53 4.14 4.81 4.58 9.65 4.51 15.8 0.0063 0.866 0.0126 1.73 0.0191 2.62 0.0163 2.9 0.00409 5.81-0.00793 8.71 0.00587 2.1 0.0135 4.2 0.0227 6.3 0.0203 5.78 0.0157 11.6 0.00709 17.3-0.00494 6.23 0.0131 12.5 0.0284 18.7 0.0233 10.8 0.0322 21.6 0.0309 32.4-0.00131 11.3 0.00563 22.6 0.0236 34 0.00111 0.704 0.00222 1.41 0.00337 2.13 0.00569 3.57 0.0115 7.15 0.0174 10.7 0.0415 25.3 0.0644 50.6 0.0765 75.9 0.0118 24.6 0.032 49.2 0.0635 73.8 0.00145 1.14 0.00145 1.14 0.00293 2.3 0.00973 7.61 0.0196 15.2 0.0297 22.8 0.0204 15.5 0.0397 31 0.0583 46.5 0.00128 1.07 0.00128 1.07 0.00259 2.16 0.0571 47.6 0.0867 95.2 0.114 143h42v-562h-636zm75 74c-1.56 3.11-1.13 6.42-1.12 9.84-0.00115 0.823-0.00231 1.65-0.0035 2.49-0.00267 2.79 0.00186 5.57 0.00629 8.36-4.36e-4 2.01-0.00131 4.01-0.00259 6.02-0.00225 5.54 0.00178 11.1 0.00678 16.6 0.0043 5.96 0.00286 11.9 0.0021 17.9-5.25e-4 10.3 0.00259 20.7 0.00824 31 0.00591 10.8 0.00976 21.7 0.0109 32.5 6.87e-5 0.674 1.37e-4 1.35 2.08e-4 2.04 3.38e-4 3.42 6.4e-4 6.84 9.27e-4 10.3 0.0021 24.2 0.00884 48.5 0.0183 72.7 0.00918 23.6 0.0163 47.1 0.0205 70.7 1.32e-4 0.726 2.63e-4 1.45 3.99e-4 2.2 0.00132 7.29 0.00259 14.6 0.00384 21.9 0.00254 14.8 0.00536 29.7 0.00835 44.5 1.37e-4 0.683 2.75e-4 1.37 4.16e-4 2.07 0.0092 45.6 0.0257 91.2 0.0419 137h190v-487c-3.96-0.99-7.47-1.14-11.5-1.12-0.759-8.54e-4 -1.52-0.00171-2.3-0.00259-2.54-0.00165-5.09 0.00386-7.63 0.00932-1.82 2.82e-4 -3.65 1.24e-4 -5.47-4.43e-4 -4.95-2.87e-4 -9.9 0.0056-14.9 0.0126-5.17 0.00624-10.3 0.00684-15.5 0.00803-9.8 0.00311-19.6 0.0113-29.4 0.0213-11.2 0.0112-22.3 0.0167-33.5 0.0217-22.9 0.0105-45.9 0.028-68.8 0.0503zm222 1c-0.0989 2.58-0.132 5.14-0.123 7.73-0.00115 0.823-0.00231 1.65-0.0035 2.5-0.00267 2.79 0.00186 5.59 0.00629 8.38-4.36e-4 2.01-0.00131 4.02-0.00259 6.03-0.00225 5.55 0.00178 11.1 0.00678 16.7 0.0043 5.97 0.00286 11.9 0.0021 17.9-5.26e-4 10.4 0.00259 20.7 0.00824 31.1 0.00591 10.9 0.00976 21.7 0.0109 32.6 6.87e-5 0.675 1.37e-4 1.35 2.08e-4 2.05 3.38e-4 3.43 6.4e-4 6.86 9.27e-4 10.3 0.0021 24.3 0.00884 48.6 0.0183 72.9 0.00918 23.6 0.0163 47.2 0.0205 70.8 1.32e-4 0.727 2.63e-4 1.45 3.99e-4 2.2 0.00132 7.31 0.00259 14.6 0.00384 21.9 0.00254 14.9 0.00536 29.8 0.00835 44.6 1.37e-4 0.684 2.75e-4 1.37 4.16e-4 2.07 0.00921 45.7 0.0253 91.4 0.0419 137h42c0.0169-46.4 0.033-92.8 0.0423-139 2.07e-4 -1.03 2.07e-4 -1.03 4.18e-4 -2.08 0.00299-14.9 0.00576-29.8 0.0083-44.7 0.00125-7.31 0.00254-14.6 0.00387-21.9 1.96e-4 -1.09 1.96e-4 -1.09 3.96e-4 -2.21 0.00427-23.6 0.0118-47.2 0.021-70.8 0.00942-24.3 0.0156-48.5 0.0176-72.8 2.88e-4 -3.42 6.14e-4 -6.84 9.62e-4 -10.3 6.74e-5 -0.674 1.35e-4 -1.35 2.04e-4 -2.04 0.00118-10.9 0.00583-21.7 0.0118-32.6 0.00587-10.9 0.00806-21.8 0.00667-32.7-6.44e-4 -5.92 3.78e-4 -11.8 0.0057-17.7 0.00483-5.41 0.00513-10.8 0.00169-16.2-4.26e-4 -1.97 8.71e-4 -3.93 0.00398-5.9 0.00396-2.65 0.00188-5.31-0.00184-7.96 0.00394-1.17 0.00394-1.17 0.00796-2.36 0.305-3.48 0.305-3.48-1.13-6.37-2.95-0.101-5.87-0.14-8.81-0.133-0.884-9.57e-4 -1.77-0.00191-2.68-0.0029-1.87-6.82e-4 -3.75 0.00117-5.62 0.00534-2.88 0.00535-5.75 5.52e-5 -8.63-0.00635-1.82 6.61e-4 -3.63 0.00194-5.45 0.00391-1.3-0.00304-1.3-0.00304-2.63-0.00613-3.91-0.374-3.91-0.374-7.19 1.14zm75 0c-0.255 3.25-0.43 6.48-0.554 9.74-0.0421 1.1-0.0843 2.19-0.128 3.32-0.601 17.9-0.459 35.9-0.449 53.8 0.00229 5.64-0.00124 11.3-0.00398 16.9-0.00442 11-0.0035 22-5.87e-4 33 0.00227 8.94 0.00256 17.9 0.00148 26.8-1.53e-4 1.28-3.06e-4 2.55-4.64e-4 3.87-3.2e-4 2.59-6.44e-4 5.18-9.73e-4 7.78-0.00276 23.5 9.06e-5 47.1 0.00534 70.6 0.00476 21.5 0.00431 43-4.61e-4 64.5-0.00535 24.2-0.00746 48.4-0.00439 72.6 3.19e-4 2.57 6.33e-4 5.15 9.43e-4 7.72 1.54e-4 1.27 3.09e-4 2.53 4.68e-4 3.84 8.65e-4 8.94-5.96e-4 17.9-0.00295 26.8-0.0028 10.9-0.00206 21.7 0.00328 32.6 0.00264 5.55 0.00364 11.1 3.51e-4 16.6-0.00296 5.07-0.00137 10.1 0.00398 15.2 0.00113 1.84 5.31e-4 3.68-0.00188 5.53-3e-3 2.49 3.84e-5 4.97 0.00472 7.46-0.00234 0.73-0.00468 1.46-0.00709 2.21-0.274 3.3-0.274 3.3 1.13 6.04 2.43 0.0977 4.83 0.13 7.26 0.12 0.769 8.54e-4 1.54 0.00171 2.33 0.00259 2.59 0.00166 5.19-0.00387 7.78-0.00932 1.85-2.82e-4 3.7-1.24e-4 5.56 4.43e-4 5.05 2.88e-4 10.1-0.00561 15.1-0.0126 5.27-0.00623 10.5-0.00684 15.8-0.00803 9.98-0.00311 20-0.0113 29.9-0.0213 11.4-0.0112 22.7-0.0167 34.1-0.0217 23.4-0.0105 46.7-0.0281 70.1-0.0503 1.17-23 1.14-46 1.13-69-0.00229-5.62 0.00124-11.2 0.00398-16.9 0.00442-11 0.0035-21.9 5.87e-4 -32.9-0.00227-8.91-0.00256-17.8-0.00148-26.7 2.3e-4 -1.91 2.3e-4 -1.91 4.64e-4 -3.86 3.2e-4 -2.59 6.44e-4 -5.17 9.73e-4 -7.76 0.00276-23.5-8.91e-5 -47-0.00534-70.4-0.00476-21.4-0.00431-42.9 4.61e-4 -64.3 0.00535-24.1 0.00746-48.2 0.00439-72.4-3.19e-4 -2.57-6.33e-4 -5.14-9.43e-4 -7.7-1.54e-4 -1.26-3.09e-4 -2.53-4.68e-4 -3.83-8.65e-4 -8.92 5.96e-4 -17.8 0.00295-26.7 0.0028-10.8 0.00206-21.7-0.00328-32.5-0.00264-5.53-0.00364-11.1-3.51e-4 -16.6 0.00296-5.06 0.00137-10.1-0.00398-15.2-0.00113-1.84-5.31e-4 -3.67 0.00188-5.51 3e-3 -2.48-3.84e-5 -4.96-0.00472-7.44 0.00234-0.728 0.00468-1.46 0.00709-2.21 0.273-3.3 0.273-3.3-1.13-6.03-2.41-0.0999-4.8-0.134-7.21-0.127-1.15-0.00234-1.15-0.00234-2.31-0.00473-2.58-0.00401-5.16-8.19e-4 -7.74 0.00232-1.84-0.00135-3.68-0.00313-5.52-0.00531-5.01-0.00458-10-0.00278-15 3.79e-4 -5.24 0.00252-10.5 1.86e-4 -15.7-0.00139-8.79-0.00182-17.6 5.85e-4 -26.4 0.00534-10.2 0.00544-20.4 0.00368-30.5-0.00183-8.73-0.00453-17.5-0.00518-26.2-0.00256-5.22 0.00156-10.4 0.00176-15.7-0.00154-4.9-0.00288-9.81-9.04e-4 -14.7 0.00489-1.81 0.00133-3.61 9.33e-4 -5.42-0.00126-2.45-0.00271-4.91 6.68e-4 -7.36 0.00568-1.09-0.00335-1.09-0.00335-2.19-0.00676-3.29-0.271-3.29-0.271-6.02 1.13zm-718 377v282c51.6 0.862 51.6 0.862 103 1.13 2.51-0.0037 5.02-0.00522 7.52-0.00626 26.8-0.0137 53.5-0.355 80.3-1.12 0.00587-0.914 0.0117-1.83 0.0178-2.77 0.058-8.62 0.13-17.2 0.218-25.9 0.0447-4.43 0.0839-8.86 0.111-13.3 0.0261-4.28 0.0665-8.56 0.117-12.8 0.0167-1.63 0.0282-3.26 0.0344-4.89 0.00966-2.29 0.0377-4.58 0.07-6.86 0.0167-1.95 0.0167-1.95 0.0336-3.94 0.509-4.51 1.84-7.78 4.87-11.2 5-3.69 9.35-4.12 15.5-4.16 0.875-0.0251 1.75-0.0503 2.65-0.0762 2.14-0.0584 4.27-0.0878 6.41-0.111 0.0162-0.926 0.0323-1.85 0.049-2.81 0.156-8.74 0.331-17.5 0.526-26.2 0.0998-4.49 0.192-8.99 0.269-13.5 0.0739-4.34 0.167-8.68 0.272-13 0.037-1.65 0.0672-3.31 0.0906-4.96 0.0339-2.32 0.092-4.64 0.156-6.96 0.0266-1.32 0.0533-2.64 0.0807-4 0.773-4.95 2.88-8.1 6.62-11.4 4.05-2.48 7.94-2.36 12.5-2.39 0.783-0.01 1.57-0.0201 2.37-0.0304 2.54-0.0314 5.07-0.0562 7.61-0.0807 1.57-0.0184 3.13-0.0372 4.7-0.0565 5.81-0.0684 11.6-0.128 17.4-0.19 13-0.144 25.9-0.289 39.3-0.438v-110h-313zm1015 0v110c25.7 0.21 25.7 0.21 51.5 0.388 4.99 0.0499 4.99 0.0499 7.33 0.0771 1.63 0.0161 3.25 0.0264 4.88 0.0321 2.47 0.00977 4.94 0.0381 7.41 0.0705 0.719-0.00143 1.44-0.00285 2.18-0.00432 4.64 0.0865 7.81 1.01 11.8 3.44 4.58 4.96 5.13 8.51 5.21 15.1 0.0099 0.722 0.0198 1.44 0.03 2.19 0.0316 2.39 0.0564 4.77 0.0811 7.16 0.0206 1.65 0.0416 3.31 0.063 4.96 0.0552 4.35 0.105 8.71 0.153 13.1 0.0502 4.44 0.106 8.89 0.161 13.3 0.108 8.72 0.209 17.4 0.307 26.2 1.29 0.0258 2.58 0.0516 3.91 0.0781 1.72 0.0563 3.43 0.114 5.15 0.172 0.848 0.0142 1.7 0.0284 2.57 0.043 5.91 0.228 9.66 1.01 14.4 4.71 5.88 6.6 4.59 16.5 4.57 24.7 0.0125 1.62 0.0268 3.25 0.0429 4.87 0.0379 4.25 0.0532 8.5 0.0628 12.7 0.0198 6.83 0.0765 13.7 0.129 20.5 0.0154 2.38 0.0225 4.77 0.0281 7.15 0.00701 1.45 0.0141 2.9 0.0213 4.35 0.00348 1.27 0.00696 2.54 0.0105 3.85-0.193 2.74-0.193 2.74 1.13 3.84 2.7 0.101 5.38 0.136 8.08 0.129 1.28 0.00263 1.28 0.00263 2.59 0.00531 2.88 0.00446 5.77 0.00144 8.65-0.00189 2.07 6.77e-4 4.15 0.00165 6.22 0.0029 4.43 0.00149 8.85-6.9e-4 13.3-0.00534 4.34-0.00436 8.68-0.00478 13 0 46.1 0.047 92.1-0.607 138-1.13v-282h-313zm-761 143c-0.0986 1.62-0.128 3.25-0.129 4.87-0.00315 1.04-0.0063 2.08-0.00955 3.14 0.00202 1.13 0.00405 2.26 0.00613 3.42-9.57e-4 1.15-0.00191 2.3-0.0029 3.49-6.82e-4 2.44 0.00117 4.88 0.00534 7.31 0.00535 3.75 5.57e-5 7.49-0.00635 11.2 6.61e-4 2.36 0.00194 4.72 0.00391 7.09-0.00202 1.13-0.00405 2.26-0.00613 3.42 0.00315 1.04 0.0063 2.08 0.00955 3.14 7.96e-4 0.919 0.00159 1.84 0.00241 2.78-0.105 2.08-0.105 2.08 1.13 3.09 1.79 0.0979 3.58 0.124 5.37 0.124 1.76 0.00337 1.76 0.00337 3.56 0.00681 1.31-0.00263 2.62-0.00525 3.97-0.00796 1.4 7.39e-4 2.79 0.00192 4.19 0.0035 3.87 0.00309 7.74-1.23e-4 11.6-0.00428 4.2-0.00342 8.4-0.00107 12.6 5.77e-4 7.37 0.00208 14.7 4.2e-4 22.1-0.00364 11-0.00602 21.9-0.00634 32.9-0.00546 18.4 0.00132 36.9-0.00204 55.3-0.00802 18.3-0.00591 36.5-0.00976 54.8-0.0109 1.13-6.87e-5 2.27-1.37e-4 3.44-2.08e-4 5.76-3.38e-4 11.5-6.4e-4 17.3-9.27e-4 40.8-0.0021 81.6-0.00885 122-0.0183 39.7-0.00918 79.3-0.0163 119-0.0205 1.22-1.32e-4 2.44-2.63e-4 3.7-3.99e-4 12.3-0.00132 24.5-0.00259 36.8-0.00384 25-0.00254 50-0.00536 75-0.00835 1.15-1.37e-4 2.3-2.75e-4 3.48-4.16e-4 76.8-0.00921 154-0.0251 230-0.0419v-54c-78-0.0171-156-0.033-234-0.0423-1.15-1.38e-4 -2.31-2.76e-4 -3.49-4.18e-4 -25.1-0.00299-50.1-0.00576-75.2-0.0083-12.3-0.00125-24.6-0.00254-36.9-0.00387-1.22-1.31e-4 -2.45-2.62e-4 -3.71-3.96e-4 -39.7-0.00427-79.3-0.0118-119-0.021-40.7-0.00942-81.5-0.0156-122-0.0176-5.75-2.88e-4 -11.5-6.14e-4 -17.2-9.62e-4 -1.13-6.74e-5 -2.26-1.35e-4 -3.43-2.04e-4 -18.3-0.00118-36.5-0.00583-54.8-0.0118-18.3-0.00587-36.6-0.00814-55-0.00667-10.9 7.64e-4 -21.8-0.00129-32.7-0.0073-7.27-0.00373-14.5-0.00388-21.8-0.00103-4.15 0.00152-8.3 0.0014-12.5-0.00305-3.77-0.00401-7.53-0.00352-11.3 7.43e-4 -2.01 0.00106-4.02-0.00283-6.03-0.00687-1.17 0.00225-2.35 0.00449-3.56 0.00681-1.02-1.56e-4 -2.04-3.12e-4 -3.09-4.73e-4 -2.24-0.131-2.24-0.131-3.28 1.12zm-30 85c-0.596 7.75-1.15 15.3-1.13 23-9.57e-4 0.867-0.00191 1.73-0.0029 2.63-6.72e-4 1.8 0.00111 3.6 0.00534 5.4 0.00544 2.77-1.92e-5 5.54-0.00635 8.31 6.59e-4 1.76 0.00194 3.52 0.00391 5.28-0.00202 0.829-0.00405 1.66-0.00613 2.51-0.346 3.74-0.346 3.74 1.14 6.88 2.59 0.163 5.15 0.258 7.74 0.312 0.839 0.0205 1.68 0.0409 2.54 0.062 2.9 0.0672 5.8 0.125 8.7 0.181 1.56 0.0315 1.56 0.0315 3.14 0.0636 32.8 0.644 65.7 0.525 98.5 0.514 10-0.00327 20.1-5.62e-4 30.1 0.0022 19.7 0.00522 39.3 0.00483 59 0.00192 17.2-0.00253 34.3-0.00317 51.5-0.00198 1.14 7.64e-5 2.29 1.53e-4 3.47 2.31e-4 4.64 3.11e-4 9.29 6.3e-4 13.9 9.6e-4 43.4 0.00305 86.8 3.01e-4 130-0.0051 38.6-0.00476 77.1-0.00431 116 4.61e-4 43.4 0.00535 86.8 0.00748 130 0.00439 4.62-3.21e-4 9.24-6.34e-4 13.9-9.43e-4 1.14-7.91e-5 2.28-1.58e-4 3.45-2.4e-4 17.2-0.00114 34.4 1.93e-4 51.6 0.00272 19.5 0.00285 39 0.00216 58.5-0.00328 10.9-0.00294 21.8-0.00312 32.8 6.46e-4 7.28 0.00223 14.6 8.63e-4 21.9-0.0035 4.16-0.00239 8.31-0.00317 12.5 4.06e-4 3.78 0.00321 7.55 0.00188 11.3-0.00318 2.01-0.00149 4.02 0.00195 6.02 0.00555 1.78-0.00376 1.78-0.00376 3.59-0.00759 1.53-1.02e-4 1.53-1.02e-4 3.1-2.05e-4 2.91-0.0501 2.91-0.0501 6.65-1.13v-54h-880z" fill="#fff"/>
<path transform="translate(472 590)" d="m0 0c1.15-0.00466 2.3-0.00932 3.48-0.0141 3.19-0.0099 6.38-0.00635 9.57 0.00283 3.47 0.0067 6.94-0.00395 10.4-0.0124 6.08-0.0124 12.2-0.0136 18.2-0.00745 9.04 0.00908 18.1 0.00107 27.1-0.0103 16.2-0.0197 32.3-0.022 48.5-0.0168 14.1 0.00455 28.3 0.00396 42.4-0.00184 1.89-7.57e-4 3.79-0.00151 5.68-0.00227 2.86-0.00115 5.71-0.0023 8.57-0.00346 26.6-0.0107 53.1-0.0154 79.7-0.00753 1.5 4.46e-4 1.5 4.46e-4 3.03 9.01e-4 8.13 0.00245 16.3 0.00506 24.4 0.00768 31.7 0.0101 63.4 0.00175 95.2-0.0215 35.6-0.0261 71.3-0.0389 107-0.0318 3.8 7.16e-4 7.59 0.00139 11.4 0.00204 0.935 1.7e-4 1.87 3.4e-4 2.83 5.15e-4 14.1 0.0023 28.3-0.00568 42.4-0.0188 16.1-0.0149 32.1-0.0158 48.2 0.00207 8.99 0.00958 18 0.00809 27-0.00923 6-0.0105 12-0.00643 18 0.00948 3.42 0.00866 6.84 0.011 10.3-0.00427 3.69-0.0131 7.37-0.00167 11.1 0.016 1.06-0.00965 2.13-0.0193 3.22-0.0292 6.22 0.0615 11.2 0.815 16.3 4.53 4.88 5.88 5.12 11 5.15 18.4 0.00504 1.09 0.00504 1.09 0.0102 2.21 0.00947 2.4 0.0115 4.8 0.0125 7.21 0.00322 1.68 0.00658 3.36 0.0101 5.03 0.00598 3.51 0.00784 7.03 0.00725 10.5-1.01e-4 4.49 0.0135 8.98 0.0308 13.5 0.0112 3.47 0.0131 6.93 0.0126 10.4 0.00118 1.65 0.00557 3.31 0.0133 4.96 0.00987 2.32 0.00689 4.64 8.95e-4 6.96 0.00143 1.32 0.00285 2.63 0.00432 3.99-0.373 5.75-1.14 11.4-5.18 15.8-0.756 0.849-0.756 0.849-1.53 1.71-2.84 2.49-5.67 2.47-9.26 2.48-0.98 0.00327-1.96 0.00654-2.97 0.00992-1.62-0.00223-1.62-0.00223-3.28-0.0045-1.15 0.00235-2.3 0.0047-3.48 0.00713-3.21 0.00554-6.42 0.00656-9.63 0.00572-3.49 1.69e-4 -6.97 0.00607-10.5 0.0112-6.92 0.00934-13.8 0.0133-20.8 0.0155-8.29 0.00296-16.6 0.0117-24.9 0.0204-20 0.0209-40.1 0.0313-60.1 0.0401-9.47 0.0042-18.9 0.00943-28.4 0.0147-32.4 0.0179-64.8 0.0329-97.2 0.0403-2.04 4.75e-4 -4.07 9.51e-4 -6.11 0.00143-1.51 3.55e-4 -1.51 3.55e-4 -3.06 7.16e-4 -5.11 0.0012-10.2 0.00242-15.3 0.00364-1.01 2.4e-4 -2.03 4.8e-4 -3.08 7.28e-4 -32.9 0.0079-65.8 0.0313-98.8 0.0638-34.8 0.0343-69.6 0.054-104 0.0573-3.82 4.18e-4 -7.63 8.97e-4 -11.4 0.00142-1.41 1.85e-4 -1.41 1.85e-4 -2.85 3.73e-4 -15.1 0.00234-30.3 0.018-45.4 0.0385-15.2 0.0202-30.4 0.0258-45.6 0.0162-9.04-0.00523-18.1 7.26e-4 -27.1 0.0225-6.04 0.0135-12.1 0.0125-18.1-4.02e-4 -3.44-0.00693-6.88-0.00746-10.3 0.00956-3.7 0.015-7.41 0.00555-11.1-0.0102-1.07 0.0102-2.15 0.0204-3.26 0.031-6.03-0.0565-9.5-0.513-14.1-4.53-5-5.41-5.15-9.66-5.15-16.8-0.00336-0.783-0.00672-1.57-0.0102-2.37-0.00949-2.58-0.0115-5.17-0.0125-7.75-0.00321-1.8-0.00658-3.6-0.0101-5.4-0.00599-3.77-0.00784-7.54-0.00725-11.3 1.02e-4 -4.83-0.0136-9.65-0.0308-14.5-0.0111-3.71-0.0131-7.43-0.0126-11.1-0.00118-1.78-0.0056-3.56-0.0133-5.34-0.00981-2.49-0.00692-4.98-8.95e-4 -7.47-0.00562-0.733-0.0112-1.47-0.017-2.22 0.0408-6.64 1.69-10.9 6.26-15.7 5.57-3.71 10.8-3.42 17.3-3.38zm9.71 32.4v43c60.5 0.0171 121 0.033 182 0.0423 0.895 1.38e-4 1.79 2.76e-4 2.71 4.18e-4 19.4 0.00299 38.9 0.00576 58.3 0.0083 9.54 0.00125 19.1 0.00254 28.6 0.00387 0.949 1.31e-4 1.9 2.62e-4 2.88 3.96e-4 30.8 0.00427 61.6 0.0118 92.4 0.021 31.6 0.00942 63.3 0.0156 94.9 0.0176 4.46 2.88e-4 8.92 6.14e-4 13.4 9.62e-4 0.878 6.74e-5 1.76 1.35e-4 2.66 2.04e-4 14.2 0.00118 28.3 0.00583 42.5 0.0118 14.2 0.00587 28.4 0.00814 42.7 0.00667 8.46-7.64e-4 16.9 0.00129 25.4 0.0073 6.3 0.00417 12.6 0.00318 18.9 1.01e-4 2.56-4.26e-4 5.13 8.72e-4 7.69 0.00398 3.46 0.00396 6.92 0.00188 10.4-0.00184 1.02 0.00263 2.03 0.00525 3.08 0.00796 0.912-0.00225 1.82-0.00449 2.77-0.00681 1.19 2.34e-4 1.19 2.34e-4 2.4 4.73e-4 1.82 0.0711 1.82 0.0711 2.8-1.12 0.101-3.02 0.14-6.01 0.133-9.03 9.57e-4 -0.906 0.00191-1.81 0.0029-2.75 6.82e-4 -1.92-0.00117-3.84-0.00534-5.76-0.00535-2.95-5.52e-5 -5.9 0.00635-8.85-6.61e-4 -1.86-0.00194-3.72-0.00391-5.58 0.00202-0.889 0.00405-1.78 0.00613-2.69 0.387-3.99 0.387-3.99-1.14-7.34-1.4-0.0969-2.8-0.124-4.2-0.124-1.37-0.00337-1.37-0.00337-2.77-0.00681-1.52 0.00394-1.52 0.00394-3.08 0.00796-1.61-0.00173-1.61-0.00173-3.25-0.0035-3.64-0.00268-7.29 0.00186-10.9 0.00629-2.62-4.36e-4 -5.24-0.00131-7.86-0.00259-5.72-0.00208-11.4-4.2e-4 -17.2 0.00364-8.51 0.00602-17 0.00634-25.5 0.00546-14.3-0.00132-28.6 0.00204-42.9 0.00802-14.2 0.00591-28.4 0.00976-42.5 0.0109-1.32 1.03e-4 -1.32 1.03e-4 -2.67 2.08e-4 -4.47 3.38e-4 -8.94 6.4e-4 -13.4 9.27e-4 -31.7 0.0021-63.4 0.00884-95.1 0.0183-30.8 0.00918-61.6 0.0163-92.4 0.0205-1.42 1.97e-4 -1.42 1.97e-4 -2.87 3.99e-4 -9.53 0.00132-19.1 0.00259-28.6 0.00384-19.4 0.00254-38.8 0.00536-58.2 0.00835-1.34 2.06e-4 -1.34 2.06e-4 -2.7 4.16e-4 -59.6 0.00921-119 0.0251-179 0.0419z" fill="#fff"/>
<path transform="translate(927 111)" d="m0 0c1.49 1.28 2.97 2.57 4.44 3.88 1.13 0.934 1.13 0.934 2.28 1.89 6.03 5.09 10.9 10.8 15.7 17.1 0.818 1.06 0.818 1.06 1.65 2.14 8.48 11.8 13.9 27 16 41.2 0.125 0.838 0.25 1.68 0.379 2.54 4.5 31.6-7.59 58.9-25.9 83.8-10.3 14-15.8 24.9-13.8 42.6 0.502 3.22 1.05 6.42 1.62 9.62 1.56 9.54 2.69 18.4 2 28.1-0.044 0.679-0.088 1.36-0.133 2.06-2.17 31.1-14.7 63.6-37.4 85.6-6.16 5.14-13.3 7.01-21.3 6.65-8.62-1.06-14.5-4.78-20.2-11.3-5.55-7.46-6.02-15-5-24 0.727-3.87 1.64-7.7 2.56-11.5 3.6-15.3-0.23-27.9-8.36-41.1-3.3-5.15-7.14-9.78-11.2-14.3-0.432-0.492-0.864-0.985-1.31-1.49-11.9-14.4-11.9-14.4-27.7-23.5-6.97-0.38-10.9 3.76-16 8-16.6 15-35.5 34-37.9 57.4-0.158 7.66 0.887 15.3 3.05 22.7 2.19 8.07 2.16 17.5-1.8 25-4.31 6.4-9.7 11.1-17.3 13-10.8 1.18-19.1 0.209-28-6.48-22.2-19.8-34.3-55.3-36.2-84.2-0.596-12.1 0.466-23.5 2.74-35.5 4.49-23.6-6.64-39-18.9-58.3-15.2-24-22-50.8-16.5-79.1 6.72-29.6 23.5-52.7 48.6-69.3 22.3-13.8 50.1-18.1 75.8-13 6.23 1.64 12.3 3.75 18.5 5.74 19 6.05 35.1 4 53.4-3.42 32.5-12.7 69.3-3.46 96.1 17.7zm-86.6 13.9c-28.2 9.69-52.4 9.52-80.5-0.215-15.7-4.92-34.2-5.12-49.5 1.21-1.54 0.636-1.54 0.636-3.12 1.29-15.9 7.27-30.4 21.2-36.6 37.7-7.27 20.9-7.81 41.3 1.7 61.7 5.59 10.6 12.5 20.6 19.2 30.5 13.4 20 13.6 40.5 9.75 63.6-3.48 21.4-1.31 45.5 10.1 64.6 0.975 1.29 0.975 1.29 1.97 2.61h2c-0.0464-0.958-0.0928-1.92-0.141-2.9-0.655-19.8 5.24-36.6 16.1-53.1 0.363-0.557 0.727-1.11 1.1-1.69 6.46-9.8 14.1-18.2 22.3-26.6 1.32-1.36 2.62-2.73 3.91-4.12 11.3-11.9 24.3-21.3 41.2-21.8 21.9 0.618 36.7 17 51.1 31.7 18 19.2 33.8 43.5 33.4 70.6-0.0412 1.08-0.0825 2.15-0.125 3.26-0.161 2.78-0.161 2.78 2.12 4.62 15.1-24.2 15.3-53 10.4-80.2-3.29-18.3 0.685-32.8 9.58-48.8 0.461-0.859 0.923-1.72 1.4-2.6 2.28-4.03 4.85-7.77 7.62-11.5 11.8-15.8 20.6-31.3 20.5-51.6-0.00572-1.05-0.0114-2.09-0.0173-3.17-0.429-18.8-8.28-33.9-21.5-47.1-0.614-0.625-1.23-1.25-1.86-1.89-14.8-14-34.4-20.8-54.4-20.4-6.34 0.303-11.8 2.11-17.7 4.31z" fill="#fff"/>
<path transform="translate(853 140)" d="m0 0c4.04 3.76 6.43 8.07 6.85 13.7-0.383 4.87-2 8.2-5.16 11.8-5.46 4.18-11.3 6.35-17.8 8.19-0.883 0.255-1.77 0.51-2.68 0.772-27.4 7.77-60.6 7.74-86.2-6.37-3.7-2.58-4.83-4.26-6.27-8.59-0.729-4.91-0.674-9.36 1.56-13.9 3.18-4.07 6.16-6.7 11.4-7.38 6.14-0.0734 11.3 1.26 17.1 3.19 20.5 6.72 41.1 5.08 61.4-1.69 7.55-2.5 12.6-3.05 19.9 0.25z" fill="#fff"/>
<path transform="translate(901 1114)" d="m0 0c4.13 2.92 6.63 5.83 7.56 10.8 0.104 1.7 0.158 3.4 0.177 5.1 0.0193 1.52 0.0193 1.52 0.0389 3.08 0.00739 1.09 0.0148 2.18 0.0224 3.31 0.00807 1.13 0.0161 2.26 0.0245 3.42 0.0138 2.39 0.0246 4.78 0.0324 7.17 0.0172 3.64 0.0611 7.29 0.105 10.9 0.0101 2.33 0.0186 4.65 0.0254 6.98 0.0175 1.08 0.035 2.17 0.0531 3.28-0.0182 6.4-0.665 11.4-4.48 16.7-4.18 3.7-8.42 5.25-14 5-4.6-0.885-7.44-2.48-10.9-5.69-4.31-6.72-4.43-13.7-4.39-21.4-0.00191-0.946-0.00383-1.89-0.0058-2.87-0.00135-1.99 0.00229-3.98 0.0107-5.97 0.0107-3.03 7.77e-5 -6.06-0.0127-9.08 0.00132-1.94 0.00388-3.89 0.00781-5.83-0.00405-0.896-0.0081-1.79-0.0123-2.72 0.0631-8.55 1.07-15.2 7.28-21.4 5.5-3.44 12.5-2.86 18.4-0.812z" fill="#fff"/>
</svg>
